<svg viewBox="0 0 880 600" xmlns="http://www.w3.org/2000/svg" font-family="'Segoe UI', system-ui, sans-serif">
  <rect x="0" y="0" width="880" height="600" rx="18" fill="#FBF7F0"/>
  <text x="40" y="46" font-size="23" font-weight="700" fill="#3E2C39">Obiteljski model — konvergencija između neovisnih izvora</text>
  <text x="40" y="72" font-size="14" fill="#6B4A5E">32 sustava → 8 obitelji. Konvergencija računa obitelji, a ne pojedinačne sustave. Broj na desnoj strani = težina obitelji.</text>

  <!-- card template via groups -->
  <!-- Row 1 -->
  <!-- self_report (highlight) -->
  <g>
    <rect x="40" y="92" width="390" height="104" rx="12" fill="#FFFFFF" stroke="#C2A14D" stroke-width="2.5"/>
    <rect x="40" y="92" width="8" height="104" rx="4" fill="#C2A14D"/>
    <text x="62" y="118" font-size="16" font-weight="700" fill="#3E2C39">samoprijava ★</text>
    <circle cx="406" cy="112" r="16" fill="#C2A14D"/><text x="406" y="117" font-size="13" font-weight="700" fill="#FFFFFF" text-anchor="middle">1.3</text>
    <text x="62" y="137" font-size="11.5" font-style="italic" fill="#8A6B7C">Izvor: upitnik — većina neovisnih dokaza</text>
    <text x="62" y="158" font-size="10.5" fill="#5E4257">eneagram · šesnaest_vrsta · spiralna_dinamika · via_snage · tcm</text>
    <text x="62" y="174" font-size="10.5" fill="#5E4257">big_five · riasec · ayurveda_dosha · kronotip · stil_privrženosti</text>
  </g>
  <!-- astro_western -->
  <g>
    <rect x="450" y="92" width="390" height="104" rx="12" fill="#FFFFFF" stroke="#E4D9CB" stroke-width="1.5"/>
    <rect x="450" y="92" width="8" height="104" rx="4" fill="#6B4A5E"/>
    <text x="472" y="118" font-size="16" font-weight="700" fill="#3E2C39">astro_western</text>
    <circle cx="816" cy="112" r="16" fill="#6B4A5E"/><text x="816" y="117" font-size="13" font-weight="700" fill="#FFFFFF" text-anchor="middle">1.0</text>
    <text x="472" y="137" font-size="11.5" font-style="italic" fill="#8A6B7C">Izvor: tropske efemeride</text>
    <text x="472" y="160" font-size="10.5" fill="#5E4257">astrologija · sabijski_simboli · fiksne_zvijezde</text>
    <text x="472" y="176" font-size="10.5" fill="#5E4257">astrokartografija · drakonska_karta</text>
  </g>

  <!-- Row 2 -->
  <g>
    <rect x="40" y="208" width="390" height="92" rx="12" fill="#FFFFFF" stroke="#E4D9CB" stroke-width="1.5"/>
    <rect x="40" y="208" width="8" height="92" rx="4" fill="#6E8867"/>
    <text x="62" y="234" font-size="16" font-weight="700" fill="#3E2C39">hd_gk</text>
    <circle cx="406" cy="228" r="16" fill="#6E8867"/><text x="406" y="233" font-size="13" font-weight="700" fill="#FFFFFF" text-anchor="middle">1.0</text>
    <text x="62" y="253" font-size="11.5" font-style="italic" fill="#8A6B7C">Izvor: I-Ching Gate Wheel (Ephemeris + Mandala)</text>
    <text x="62" y="277" font-size="10.5" fill="#5E4257">ljudski_dizajn · genski ključevi</text>
  </g>
  <g>
    <rect x="450" y="208" width="390" height="92" rx="12" fill="#FFFFFF" stroke="#E4D9CB" stroke-width="1.5"/>
    <rect x="450" y="208" width="8" height="92" rx="4" fill="#8A6B7C"/>
    <text x="472" y="234" font-size="16" font-weight="700" fill="#3E2C39">numerologija</text>
    <circle cx="816" cy="228" r="16" fill="#8A6B7C"/><text x="816" y="233" font-size="13" font-weight="700" fill="#FFFFFF" text-anchor="middle">0.8</text>
    <text x="472" y="253" font-size="11.5" font-style="italic" fill="#8A6B7C">Izvor: Ukupni datum rođenja / ime</text>
    <text x="472" y="277" font-size="10.5" fill="#5E4257">numerologija · kabala · kabala_ext · tarot_rođenje · karte_sudbine · lo_shu_grid</text>
  </g>

  <!-- Row 3 -->
  <g>
    <rect x="40" y="312" width="390" height="92" rx="12" fill="#FFFFFF" stroke="#E4D9CB" stroke-width="1.5"/>
    <rect x="40" y="312" width="8" height="92" rx="4" fill="#8B6F84"/>
    <text x="62" y="338" font-size="16" font-weight="700" fill="#3E2C39">astro_sidereal</text>
    <circle cx="406" cy="332" r="16" fill="#8B6F84"/><text x="406" y="337" font-size="13" font-weight="700" fill="#FFFFFF" text-anchor="middle">0.8</text>
    <text x="62" y="357" font-size="11.5" font-style="italic" fill="#8A6B7C">Izvor: sideralne efemeride (Lahiri)</text>
    <text x="62" y="381" font-size="10.5" fill="#5E4257">vedski · jyotish_pun</text>
  </g>
  <g>
    <rect x="450" y="312" width="390" height="92" rx="12" fill="#FFFFFF" stroke="#E4D9CB" stroke-width="1.5"/>
    <rect x="450" y="312" width="8" height="92" rx="4" fill="#97AD8E"/>
    <text x="472" y="338" font-size="16" font-weight="700" fill="#3E2C39">calendar_east</text>
    <circle cx="816" cy="332" r="16" fill="#7E9476"/><text x="816" y="337" font-size="13" font-weight="700" fill="#FFFFFF" text-anchor="middle">0.7</text>
    <text x="472" y="357" font-size="11.5" font-style="italic" fill="#8A6B7C">Izvor: Kalendar/Cycle Anchor</text>
    <text x="472" y="381" font-size="10.5" fill="#5E4257">kineski · nine_star_ki · tzolkin · mahabote</text>
  </g>

  <!-- Row 4 -->
  <g>
    <rect x="40" y="416" width="390" height="92" rx="12" fill="#FFFFFF" stroke="#E4D9CB" stroke-width="1.5"/>
    <rect x="40" y="416" width="8" height="92" rx="4" fill="#B59FA8"/>
    <text x="62" y="442" font-size="16" font-weight="700" fill="#3E2C39">proročište</text>
    <circle cx="406" cy="436" r="16" fill="#B59FA8"/><text x="406" y="441" font-size="13" font-weight="700" fill="#FFFFFF" text-anchor="middle">0.5</text>
    <text x="62" y="461" font-size="11.5" font-style="italic" fill="#8A6B7C">Izvor: determinističko sjeme</text>
    <text x="62" y="485" font-size="10.5" fill="#5E4257">iching · oracle_cards</text>
  </g>
  <g>
    <rect x="450" y="416" width="390" height="92" rx="12" fill="#FFFFFF" stroke="#E4D9CB" stroke-width="1.5"/>
    <rect x="450" y="416" width="8" height="92" rx="4" fill="#AEBFA6"/>
    <text x="472" y="442" font-size="16" font-weight="700" fill="#3E2C39">ciklus</text>
    <circle cx="816" cy="436" r="16" fill="#9DB094"/><text x="816" y="441" font-size="13" font-weight="700" fill="#FFFFFF" text-anchor="middle">0.5</text>
    <text x="472" y="461" font-size="11.5" font-style="italic" fill="#8A6B7C">Izvor: čisti ciklus datuma</text>
    <text x="472" y="485" font-size="10.5" fill="#5E4257">bioritam</text>
  </g>

  <text x="40" y="540" font-size="12.5" fill="#6B4A5E">Osnovno pravilo: računa se 5 sustava iz iste obitelji koji odražavaju istu temu <tspan font-weight="700">ne</tspan> poput 5 neovisnih dokaza —</text>
  <text x="40" y="560" font-size="12.5" fill="#6B4A5E">prava konvergencija se događa samo kada <tspan font-weight="700" fill="#3E2C39">nekoliko različitih obitelji</tspan> ukazuju na istu temu.</text>
  <text x="40" y="586" font-size="11" fill="#A38FA0">Astrakey · Convergence Engine · Slika 1 — Dodjela obitelji je verzionirana konfiguracija (treba lektorirati)</text>
</svg>
