<svg viewBox="0 0 880 600" xmlns="http://www.w3.org/2000/svg" font-family="'Segoe UI', system-ui, sans-serif">
  <rect x="0" y="0" width="880" height="600" rx="18" fill="#FBF7F0"/>
  <text x="40" y="46" font-size="23" font-weight="700" fill="#3E2C39">Семеен модел — конвергенция между независими източници</text>
  <text x="40" y="72" font-size="14" fill="#6B4A5E">32 системи → 8 семейства. Конвергенцията отчита семействата, а не отделните системи. Числото вдясно = семейно тегло.</text>

  <!-- card template via groups -->
  <!-- Row 1 -->
  <!-- self_report (highlight) -->
  <g>
    <rect x="40" y="92" width="390" height="104" rx="12" fill="#FFFFFF" stroke="#C2A14D" stroke-width="2.5"/>
    <rect x="40" y="92" width="8" height="104" rx="4" fill="#C2A14D"/>
    <text x="62" y="118" font-size="16" font-weight="700" fill="#3E2C39">self_report ★</text>
    <circle cx="406" cy="112" r="16" fill="#C2A14D"/><text x="406" y="117" font-size="13" font-weight="700" fill="#FFFFFF" text-anchor="middle">1.3</text>
    <text x="62" y="137" font-size="11.5" font-style="italic" fill="#8A6B7C">Източник: въпросник — най-независимите доказателства</text>
    <text x="62" y="158" font-size="10.5" fill="#5E4257">енеаграма · шестнадесет_типа · спираловидна_динамика · чрез_силни страни · tcm</text>
    <text x="62" y="174" font-size="10.5" fill="#5E4257">big_five · riasec · ayurveda_dosha · хронотип · стил_привързаност</text>
  </g>
  <!-- astro_western -->
  <g>
    <rect x="450" y="92" width="390" height="104" rx="12" fill="#FFFFFF" stroke="#E4D9CB" stroke-width="1.5"/>
    <rect x="450" y="92" width="8" height="104" rx="4" fill="#6B4A5E"/>
    <text x="472" y="118" font-size="16" font-weight="700" fill="#3E2C39">astro_western</text>
    <circle cx="816" cy="112" r="16" fill="#6B4A5E"/><text x="816" y="117" font-size="13" font-weight="700" fill="#FFFFFF" text-anchor="middle">1.0</text>
    <text x="472" y="137" font-size="11.5" font-style="italic" fill="#8A6B7C">Източник: тропически ефемериди</text>
    <text x="472" y="160" font-size="10.5" fill="#5E4257">астрология · sabian_символи · неподвижни_звезди</text>
    <text x="472" y="176" font-size="10.5" fill="#5E4257">астрокартография · драконова_диаграма</text>
  </g>

  <!-- Row 2 -->
  <g>
    <rect x="40" y="208" width="390" height="92" rx="12" fill="#FFFFFF" stroke="#E4D9CB" stroke-width="1.5"/>
    <rect x="40" y="208" width="8" height="92" rx="4" fill="#6E8867"/>
    <text x="62" y="234" font-size="16" font-weight="700" fill="#3E2C39">hd_gk</text>
    <circle cx="406" cy="228" r="16" fill="#6E8867"/><text x="406" y="233" font-size="13" font-weight="700" fill="#FFFFFF" text-anchor="middle">1.0</text>
    <text x="62" y="253" font-size="11.5" font-style="italic" fill="#8A6B7C">Източник: I-Ching Gate Wheel (Ephemeris + Mandala)</text>
    <text x="62" y="277" font-size="10.5" fill="#5E4257">човешки_дизайн · генни_ключове</text>
  </g>
  <g>
    <rect x="450" y="208" width="390" height="92" rx="12" fill="#FFFFFF" stroke="#E4D9CB" stroke-width="1.5"/>
    <rect x="450" y="208" width="8" height="92" rx="4" fill="#8A6B7C"/>
    <text x="472" y="234" font-size="16" font-weight="700" fill="#3E2C39">нумерология</text>
    <circle cx="816" cy="228" r="16" fill="#8A6B7C"/><text x="816" y="233" font-size="13" font-weight="700" fill="#FFFFFF" text-anchor="middle">0.8</text>
    <text x="472" y="253" font-size="11.5" font-style="italic" fill="#8A6B7C">Източник: Обща дата на раждане / Име</text>
    <text x="472" y="277" font-size="10.5" fill="#5E4257">нумерология · кабала · kabbalah_ext · таро_раждане · карти_на_съдбата · lo_shu_grid</text>
  </g>

  <!-- Row 3 -->
  <g>
    <rect x="40" y="312" width="390" height="92" rx="12" fill="#FFFFFF" stroke="#E4D9CB" stroke-width="1.5"/>
    <rect x="40" y="312" width="8" height="92" rx="4" fill="#8B6F84"/>
    <text x="62" y="338" font-size="16" font-weight="700" fill="#3E2C39">astro_sidereal</text>
    <circle cx="406" cy="332" r="16" fill="#8B6F84"/><text x="406" y="337" font-size="13" font-weight="700" fill="#FFFFFF" text-anchor="middle">0.8</text>
    <text x="62" y="357" font-size="11.5" font-style="italic" fill="#8A6B7C">Източник: звездни ефемериди (Lahiri)</text>
    <text x="62" y="381" font-size="10.5" fill="#5E4257">ведически · jyotish_пълен</text>
  </g>
  <g>
    <rect x="450" y="312" width="390" height="92" rx="12" fill="#FFFFFF" stroke="#E4D9CB" stroke-width="1.5"/>
    <rect x="450" y="312" width="8" height="92" rx="4" fill="#97AD8E"/>
    <text x="472" y="338" font-size="16" font-weight="700" fill="#3E2C39">calendar_east</text>
    <circle cx="816" cy="332" r="16" fill="#7E9476"/><text x="816" y="337" font-size="13" font-weight="700" fill="#FFFFFF" text-anchor="middle">0.7</text>
    <text x="472" y="357" font-size="11.5" font-style="italic" fill="#8A6B7C">Източник: Calendar/Cycle Anchor</text>
    <text x="472" y="381" font-size="10.5" fill="#5E4257">китайски · nine_star_ki · tzolkin · mahabote</text>
  </g>

  <!-- Row 4 -->
  <g>
    <rect x="40" y="416" width="390" height="92" rx="12" fill="#FFFFFF" stroke="#E4D9CB" stroke-width="1.5"/>
    <rect x="40" y="416" width="8" height="92" rx="4" fill="#B59FA8"/>
    <text x="62" y="442" font-size="16" font-weight="700" fill="#3E2C39">оракул</text>
    <circle cx="406" cy="436" r="16" fill="#B59FA8"/><text x="406" y="441" font-size="13" font-weight="700" fill="#FFFFFF" text-anchor="middle">0.5</text>
    <text x="62" y="461" font-size="11.5" font-style="italic" fill="#8A6B7C">Източник: детерминистично семе</text>
    <text x="62" y="485" font-size="10.5" fill="#5E4257">iching · oracle_cards</text>
  </g>
  <g>
    <rect x="450" y="416" width="390" height="92" rx="12" fill="#FFFFFF" stroke="#E4D9CB" stroke-width="1.5"/>
    <rect x="450" y="416" width="8" height="92" rx="4" fill="#AEBFA6"/>
    <text x="472" y="442" font-size="16" font-weight="700" fill="#3E2C39">цикъл</text>
    <circle cx="816" cy="436" r="16" fill="#9DB094"/><text x="816" y="441" font-size="13" font-weight="700" fill="#FFFFFF" text-anchor="middle">0.5</text>
    <text x="472" y="461" font-size="11.5" font-style="italic" fill="#8A6B7C">Източник: чист цикъл от дати</text>
    <text x="472" y="485" font-size="10.5" fill="#5E4257">биоритъм</text>
  </g>

  <text x="40" y="540" font-size="12.5" fill="#6B4A5E">Основно правило: Броят се 5 системи от едно и също семейство, които отразяват една и съща тема <tspan font-weight="700">не</tspan> като 5 независими доказателства -</text>
  <text x="40" y="560" font-size="12.5" fill="#6B4A5E">истинска конвергенция възниква само когато <tspan font-weight="700" fill="#3E2C39">няколко различни семейства</tspan> сочат към същата тема.</text>
  <text x="40" y="586" font-size="11" fill="#A38FA0">Astrakey · Convergence Engine · Фигура 1 — Присвояването на семейството е конфигурация с версии (за корекция)</text>
</svg>
